<svg viewBox="0 0 52 64" fill="none" xmlns="http://www.w3.org/2000/svg"><path d="M35.94 8H50l2 2v44l-2 2H30.84l.97-1.5h17.57l1.12-1.12V10.62L49.38 9.5H37.26l-1.43 7.39H34.3l1.37-7.46.28-1.43h-.01ZM2 56l-2-2V10l2-2h19.9l-1.01 1.5H2.62L1.5 10.62v42.76l1.12 1.12H17.1l-.24 1.5H2Zm3-5h8.5l-.3 1.5H4l-.5-.5v-9L5 46v5Zm34 0 1.5 1.5H33l1-1.5h5Z" fill="#B7BBBD"/><path d="M22.67 38H9l-1.66-3.12 23-34 3.62 1.5L29.42 26H43l1.68 3.09-22 34-3.66-1.4L22.67 38ZM5.5 15a1.5 1.5 0 1 1 0-3 1.5 1.5 0 0 1 0 3Zm4 0a1.5 1.5 0 1 1 0-3 1.5 1.5 0 0 1 0 3Zm4 0a1.5 1.5 0 1 1 0-3 1.5 1.5 0 0 1 0 3Z" fill="url(#a)"/><defs><linearGradient id="a" x1="52.076" y1="-.607" x2="-8.349" y2="37.665" gradientUnits="userSpaceOnUse"><stop stop-color="#FBB743"/><stop offset="1" stop-color="#EA6B00"/></linearGradient></defs></svg>
