<svg viewBox="0 0 400 397" xmlns="http://www.w3.org/2000/svg" class="!tw-fill-current" role="img" title="Netlify"><radialGradient id="a" cx="0%" cy="0%" r="100%"><stop offset="0" stop-color="#20c6b7"></stop><stop offset="1" stop-color="#4d9abf"></stop></radialGradient><path d="M282.153 140.402a16.953 16.953 0 015.105 3.84c.17.167.17.167.34.167h.17l39.14-16.53c.17-.166.342-.332.342-.5 0-.166 0-.333-.17-.5l-36.59-35.894c-.17-.167-.34-.167-.34-.167h-.17c-.17 0-.34.166-.34.5l-7.998 48.582c.17.167.34.5.51.5zm-81.174-32.554c1.87 2.838 3.062 6.177 3.402 9.516 0 .167.17.334.34.5l58.2 24.542h.17c.17 0 .34 0 .34-.167 1.703-1.337 3.745-2.338 5.957-3.006.17 0 .34-.167.34-.5l9.53-58.6c0-.166 0-.333-.17-.5L242.672 43.74c-.17-.167-.17-.167-.34-.167s-.34.167-.34.334l-41.013 63.106c-.172.334-.172.668 0 .835zm198.765 90.318L337.29 136.73c-.17-.167-.34-.167-.34-.167h-.17l-42.375 17.863c-.17.167-.34.334-.34.5 0 .168.17.502.34.502l104.49 43.907h.17c.17 0 .34 0 .34-.167l.34-.334c.34 0 .34-.5 0-.668zm-10.38 10.017l-100.235-42.07h-.17c-.17 0-.34 0-.51.166-2.724 3.672-6.808 6.01-11.573 6.677-.17 0-.51.167-.51.5l-10.72 65.277c0 .167 0 .334.17.5 3.743 2.84 5.955 7.013 6.465 11.687 0 .335.17.502.51.502l60.584 12.52h.17c.17 0 .34 0 .34-.166l55.478-54.59c.17-.168.17-.335.17-.502s0-.334-.17-.5zm-132.74-55.76l-54.796-23.04h-.17c-.17 0-.34.168-.51.335-3.745 5.676-10.042 9.015-16.85 9.015-1.02 0-2.04-.167-3.232-.334h-.17c-.17 0-.34.166-.51.333l-45.098 69.283c-.17.167-.17.5 0 .668.17.167.34.167.51.167h.17l120.316-50.918c.17-.167.34-.334.34-.5v-1.504c0-1.003.17-2.005.34-2.84 0-.333-.17-.5-.34-.667zm66.03 121.203l-53.266-10.85h-.17c-.17 0-.34.166-.51.166-2.043 2.504-4.596 4.507-7.66 5.676-.17 0-.34.334-.34.5l-12.763 77.798c0 .334.17.5.34.668h.34c.17 0 .34 0 .34-.167l73.858-72.622c.17-.167.17-.334.17-.5 0-.502-.17-.67-.34-.67zm-74.367-5.342c-5.106-2.004-8.85-6.51-10.21-11.686 0-.167-.17-.334-.512-.5l-98.702-20.202h-.17c-.17 0-.34.167-.51.334-.51.835-.852 1.503-1.362 2.17-.17.167-.17.5 0 .668l89.853 128.883c.17.168.17.168.34.168s.34 0 .34-.167l5.447-5.34c0-.168.17-.168.17-.335l15.316-93.49c.34 0 .34-.334 0-.5zm-107.382-44.24c0 .333.17.5.51.5l97.852 20.033h.17c.17 0 .34-.167.51-.334 2.894-5.008 8-8.347 13.785-8.68.34 0 .51-.168.51-.502l10.552-64.273c0-.167 0-.5-.34-.5-.68-.502-1.362-1.003-2.213-1.837-.17-.167-.34-.167-.34-.167h-.17l-120.996 51.252c-.34.167-.34.334-.34.668.17 1.336.51 2.504.51 3.84zm-41.012 16.193c-.51-.668-1.02-1.336-1.532-2.17-.17-.168-.34-.334-.51-.334h-.17l-42.204 17.863c-.17 0-.34.167-.34.334s0 .334.17.5l20.59 20.2a.53.53 0 00.34.168c.17 0 .34-.167.512-.334l23.314-35.893s0-.166-.17-.333zm27.91 6.51c-.172-.166-.342-.333-.512-.333h-.17c-3.063 1.335-6.126 2.003-9.36 2.003-2.552 0-4.935-.334-7.488-1.168h-.17c-.17 0-.34.165-.51.332l-24.506 37.73-.17.167c-.17.166-.17.5 0 .667l112.657 110.686c.17.167.34.167.34.167.17 0 .34 0 .34-.167l19.74-19.533c.17-.167.17-.5 0-.668l-90.192-129.884zm-15.828-43.572c.17.166.34.333.51.333h.17c1.703-.333 3.575-.667 5.276-.667 1.872 0 3.914.335 5.786.835h.17c.17 0 .34-.167.51-.334l45.608-70.116c.17-.167.17-.5 0-.668-3.573-3.673-5.615-8.514-5.615-13.69 0-1.502.17-3.005.51-4.507 0-.335-.17-.502-.34-.67-5.785-2.503-57.008-23.873-57.008-24.04h-.17c-.17 0-.34 0-.34.167l-43.396 42.74c-.17.166-.17.5 0 .667l48.33 69.95zM116.91 80.97s51.735 21.702 53.947 22.704h.17c.17 0 .17 0 .34-.167 3.575-2.838 8.17-4.507 12.764-4.507 2.213 0 4.426.333 6.638 1h.17c.17 0 .34-.166.51-.333l42.034-64.608a.504.504 0 000-.67L198.596.168c-.17-.167-.17-.167-.34-.167s-.34 0-.34.167l-81.005 79.8c-.17.168-.17.335-.17.5-.17.335 0 .335.17.502zM96.83 215.36c.17 0 .34-.167.51-.334 1.022-2.004 2.554-3.84 4.085-5.51.17-.166.17-.5 0-.667-.51-.667-46.628-66.778-46.628-66.945-.17-.167-.17-.167-.51-.334-.17 0-.34 0-.34.168L.17 194.493c-.17.167-.17.334-.17.5 0 .168.17.335.51.335l96.32 20.034c-.17 0-.17 0 0 0zm-4.424 11.52c0-.335-.17-.502-.51-.502L8.338 209.185h-.172c-.17 0-.34.167-.51.334-.17.165 0 .5.17.666l37.27 36.73c.17.166.34.166.34.166h.17l46.287-19.533c.34-.335.51-.502.51-.67z" fill="url(#a)"></path></svg>
