<svg width="250" height="177" viewBox="0 0 250 177" fill="none" xmlns="http://www.w3.org/2000/svg"><title>îles</title>
<path d="M9.60938 147.539C9.60938 136.289 10.3125 125.078 11.7188 113.906C11.875 112.812 12.3438 111.875 13.125 111.094C13.9844 110.234 15.0781 109.805 16.4062 109.805C17.5781 109.805 18.5547 110.273 19.3359 111.211C20.1172 112.07 20.5078 113.086 20.5078 114.258C20.5078 114.727 20.3906 116.133 20.1562 118.477C20 120.82 19.7656 123.633 19.4531 126.914C19.2188 130.117 18.9844 133.555 18.75 137.227C18.5938 140.82 18.5156 144.141 18.5156 147.188C18.5156 151.328 18.9062 154.688 19.6875 157.266C20.5469 159.766 21.6016 161.719 22.8516 163.125C24.1797 164.531 25.5469 165.469 26.9531 165.938C28.4375 166.406 29.8438 166.641 31.1719 166.641C33.3594 166.641 35.625 165.859 37.9688 164.297C40.3125 162.734 42.6953 160.547 45.1172 157.734C47.6172 154.922 50.1172 151.562 52.6172 147.656C55.1172 143.672 57.5781 139.258 60 134.414C60.3906 133.633 60.9375 133.047 61.6406 132.656C62.3438 132.188 63.125 131.953 63.9844 131.953C65.2344 131.953 66.25 132.422 67.0312 133.359C67.8906 134.297 68.3203 135.312 68.3203 136.406C68.3203 137.188 68.1641 137.852 67.8516 138.398C66.9141 140.195 65.7422 142.383 64.3359 144.961C62.9297 147.539 61.3281 150.195 59.5312 152.93C57.7344 155.664 55.7422 158.398 53.5547 161.133C51.4453 163.789 49.1797 166.211 46.7578 168.398C44.3359 170.508 41.7969 172.227 39.1406 173.555C36.4844 174.883 33.7891 175.547 31.0547 175.547C27.5391 175.547 24.4531 174.805 21.7969 173.32C19.1406 171.836 16.875 169.844 15 167.344C13.2031 164.844 11.8359 161.914 10.8984 158.555C10.0391 155.117 9.60938 151.445 9.60938 147.539ZM32.8125 96.3281C33.2812 97.0312 33.5156 97.7734 33.5156 98.5547C33.5156 99.5703 33.125 100.469 32.3438 101.25C31.6406 102.031 30.7422 102.422 29.6484 102.422C28.3203 102.422 27.2656 101.914 26.4844 100.898L16.875 87.3047L7.03125 100.898C6.25 101.914 5.23438 102.422 3.98438 102.422C2.89062 102.422 1.95312 102.031 1.17188 101.25C0.390625 100.469 0 99.5703 0 98.5547C0 97.6172 0.273438 96.8359 0.820312 96.2109L13.9453 78.3984C14.7266 77.3828 15.7812 76.875 17.1094 76.875C18.4375 76.875 19.4531 77.4219 20.1562 78.5156L32.8125 96.3281Z"/>
<path d="M126.562 138.398C125.703 140.195 124.609 142.344 123.281 144.844C122.031 147.266 120.586 149.805 118.945 152.461C117.305 155.117 115.469 157.773 113.438 160.43C111.406 163.008 109.18 165.352 106.758 167.461C104.414 169.492 101.875 171.133 99.1406 172.383C96.4844 173.711 93.6328 174.375 90.5859 174.375C85.8984 174.375 81.875 172.93 78.5156 170.039C75.1562 167.148 72.3047 163.359 69.9609 158.672C67.6172 153.984 65.7031 148.672 64.2188 142.734C62.8125 136.719 61.7188 130.625 60.9375 124.453C60.1562 118.203 59.6094 112.148 59.2969 106.289C59.0625 100.43 58.9453 95.2344 58.9453 90.7031C58.9453 84.1406 59.1406 77.3438 59.5312 70.3125C60 63.2812 60.7031 56.4062 61.6406 49.6875C62.5781 42.9688 63.75 36.6016 65.1562 30.5859C66.6406 24.5703 68.3594 19.2969 70.3125 14.7656C72.3438 10.2344 74.6484 6.64062 77.2266 3.98438C79.8047 1.32812 82.7344 0 86.0156 0C88.5938 0 90.8984 0.625 92.9297 1.875C95.0391 3.04688 96.7969 5 98.2031 7.73438C99.6094 10.4688 100.703 14.0234 101.484 18.3984C102.266 22.7734 102.656 28.125 102.656 34.4531C102.656 42.2656 101.836 50.3516 100.195 58.7109C98.5547 66.9922 96.3281 75.3516 93.5156 83.7891C90.7031 92.2266 87.3828 100.664 83.5547 109.102C79.7266 117.461 75.625 125.625 71.25 133.594C73.2031 143.516 75.8203 151.328 79.1016 157.031C82.3828 162.656 86.3281 165.469 90.9375 165.469C94.0625 165.469 97.0703 164.258 99.9609 161.836C102.852 159.336 105.508 156.406 107.93 153.047C110.352 149.688 112.461 146.289 114.258 142.852C116.133 139.336 117.578 136.523 118.594 134.414C118.984 133.633 119.531 133.047 120.234 132.656C120.938 132.188 121.719 131.953 122.578 131.953C123.906 131.953 124.961 132.422 125.742 133.359C126.602 134.297 127.031 135.352 127.031 136.523C127.031 136.992 126.875 137.617 126.562 138.398ZM67.8516 91.2891C67.8516 96.2891 67.9688 101.094 68.2031 105.703C68.4375 110.312 68.75 114.727 69.1406 118.945C72.4219 112.617 75.5469 105.898 78.5156 98.7891C81.4844 91.6016 84.1016 84.375 86.3672 77.1094C88.6328 69.7656 90.4297 62.5 91.7578 55.3125C93.1641 48.0469 93.8672 41.1328 93.8672 34.5703C93.8672 25.3516 93.125 18.75 91.6406 14.7656C90.1562 10.7812 88.1641 8.78906 85.6641 8.78906C84.0234 8.78906 82.4219 9.92188 80.8594 12.1875C79.375 14.4531 77.9688 17.5391 76.6406 21.4453C75.3125 25.3516 74.1016 29.9609 73.0078 35.2734C71.9141 40.5859 70.9766 46.2891 70.1953 52.3828C69.4922 58.4766 68.9062 64.8438 68.4375 71.4844C68.0469 78.125 67.8516 84.7266 67.8516 91.2891Z"/>
<path d="M132.773 157.969C134.414 160.234 136.523 162.07 139.102 163.477C141.68 164.805 144.844 165.469 148.594 165.469C152.422 165.469 155.898 164.57 159.023 162.773C162.148 160.898 165 158.477 167.578 155.508C170.156 152.539 172.461 149.219 174.492 145.547C176.523 141.875 178.359 138.203 180 134.531C180.391 133.672 180.938 133.047 181.641 132.656C182.344 132.188 183.125 131.953 183.984 131.953C185.312 131.953 186.367 132.422 187.148 133.359C188.008 134.297 188.438 135.312 188.438 136.406C188.438 136.797 188.398 137.148 188.32 137.461C188.242 137.695 188.125 137.969 187.969 138.281C182.578 150.156 176.68 159.102 170.273 165.117C163.945 171.133 156.758 174.219 148.711 174.375C143.555 174.375 139.102 173.359 135.352 171.328C131.602 169.375 128.516 166.836 126.094 163.711C123.672 160.508 121.875 156.914 120.703 152.93C119.531 148.945 118.945 144.961 118.945 140.977C118.945 136.992 119.414 133.32 120.352 129.961C121.367 126.602 122.773 123.672 124.57 121.172C126.445 118.672 128.633 116.719 131.133 115.312C133.711 113.906 136.523 113.203 139.57 113.203C141.367 113.203 143.125 113.594 144.844 114.375C146.641 115.078 148.242 116.133 149.648 117.539C151.055 118.867 152.188 120.508 153.047 122.461C153.906 124.414 154.336 126.641 154.336 129.141C154.336 132.344 153.789 135.352 152.695 138.164C151.602 140.977 150.078 143.594 148.125 146.016C146.25 148.438 143.984 150.664 141.328 152.695C138.672 154.727 135.82 156.484 132.773 157.969ZM129.258 150.352C131.68 149.336 133.867 148.047 135.82 146.484C137.852 144.922 139.57 143.203 140.977 141.328C142.383 139.453 143.477 137.5 144.258 135.469C145.039 133.359 145.43 131.25 145.43 129.141C145.43 126.797 144.844 125.039 143.672 123.867C142.5 122.617 141.133 121.992 139.57 121.992C137.461 121.992 135.664 122.578 134.18 123.75C132.695 124.922 131.484 126.445 130.547 128.32C129.609 130.195 128.906 132.305 128.438 134.648C128.047 136.914 127.852 139.18 127.852 141.445C127.852 142.852 127.969 144.336 128.203 145.898C128.516 147.461 128.867 148.945 129.258 150.352Z"/>
<path d="M193.125 127.5C192.656 128.75 192.07 130.156 191.367 131.719C190.742 133.281 190 134.922 189.141 136.641C188.438 137.969 187.695 139.023 186.914 139.805C186.211 140.508 185.273 140.859 184.102 140.859C182.773 140.859 181.719 140.469 180.938 139.688C180.156 138.828 179.766 137.852 179.766 136.758C179.766 136.367 179.805 136.055 179.883 135.82C179.961 135.508 180.156 135.039 180.469 134.414C182.5 130.508 183.984 127.109 184.922 124.219C185.938 121.25 186.758 118.164 187.383 114.961C186.836 113.164 186.445 111.641 186.211 110.391C185.977 109.141 185.859 107.852 185.859 106.523C185.859 103.945 186.406 101.875 187.5 100.312C188.594 98.6719 190.117 97.8516 192.07 97.8516C193.867 97.8516 195.273 98.6328 196.289 100.195C197.383 101.758 197.93 103.672 197.93 105.938C197.93 107.188 197.812 108.438 197.578 109.688C197.344 110.938 197.031 112.5 196.641 114.375C198.438 118.828 200.234 122.773 202.031 126.211C203.828 129.648 205.43 132.812 206.836 135.703C208.242 138.516 209.375 141.172 210.234 143.672C211.172 146.172 211.641 148.672 211.641 151.172C211.641 154.453 210.977 157.578 209.648 160.547C208.32 163.516 206.133 166.016 203.086 168.047C203.477 168.125 203.867 168.164 204.258 168.164C204.648 168.164 205.039 168.164 205.43 168.164C209.883 168.164 213.984 167.148 217.734 165.117C221.484 163.086 224.844 160.469 227.812 157.266C230.859 153.984 233.555 150.391 235.898 146.484C238.242 142.5 240.273 138.555 241.992 134.648C242.773 132.852 243.867 131.953 245.273 131.953C246.602 131.953 247.617 132.422 248.32 133.359C249.102 134.297 249.492 135.312 249.492 136.406C249.492 137.031 249.375 137.617 249.141 138.164C248.281 140.273 247.148 142.695 245.742 145.43C244.414 148.086 242.773 150.859 240.82 153.75C238.945 156.562 236.758 159.336 234.258 162.07C231.758 164.805 228.945 167.266 225.82 169.453C222.773 171.562 219.414 173.242 215.742 174.492C212.07 175.82 208.047 176.484 203.672 176.484C198.438 176.484 199.18 177.062 194.648 175.187C190.195 173.39 186.562 170.382 183.75 166.163C183.281 165.46 183.047 164.718 183.047 163.937C183.047 162.765 183.477 161.749 184.336 160.89C185.273 159.953 186.328 159.484 187.5 159.484C188.75 159.484 189.805 159.913 190.664 160.773C190.742 160.929 191.016 161.203 191.484 161.593C191.953 161.906 192.5 162.296 193.125 162.765C192.266 162.453 193.828 163.156 193.125 162.765C194.062 163.078 192.562 163 193.5 163C195.375 163 196.094 162.383 197.344 161.602C198.672 160.82 199.727 159.883 200.508 158.789C201.289 157.617 201.836 156.406 202.148 155.156C202.539 153.828 202.734 152.695 202.734 151.758C202.734 149.805 202.422 147.852 201.797 145.898C201.172 143.945 200.352 141.992 199.336 140.039C198.398 138.086 197.344 136.094 196.172 134.062C195.078 131.953 194.062 129.766 193.125 127.5Z"/>
</svg>
