<svg width="445" height="194" viewBox="0 0 445 194" fill="none" xmlns="http://www.w3.org/2000/svg">
<path d="M11.6094 156.539C11.6094 145.289 12.3125 134.078 13.7188 122.906C13.875 121.812 14.3438 120.875 15.125 120.094C15.9844 119.234 17.0781 118.805 18.4062 118.805C19.5781 118.805 20.5547 119.273 21.3359 120.211C22.1172 121.07 22.5078 122.086 22.5078 123.258C22.5078 123.727 22.3906 125.133 22.1562 127.477C22 129.82 21.7656 132.633 21.4531 135.914C21.2188 139.117 20.9844 142.555 20.75 146.227C20.5938 149.82 20.5156 153.141 20.5156 156.188C20.5156 160.328 20.9062 163.688 21.6875 166.266C22.5469 168.766 23.6016 170.719 24.8516 172.125C26.1797 173.531 27.5469 174.469 28.9531 174.938C30.4375 175.406 31.8438 175.641 33.1719 175.641C35.3594 175.641 37.625 174.859 39.9688 173.297C42.3125 171.734 44.6953 169.547 47.1172 166.734C49.6172 163.922 52.1172 160.562 54.6172 156.656C57.1172 152.672 59.5781 148.258 62 143.414C62.3906 142.633 62.9375 142.047 63.6406 141.656C64.3438 141.188 65.125 140.953 65.9844 140.953C67.2344 140.953 68.25 141.422 69.0312 142.359C69.8906 143.297 70.3203 144.312 70.3203 145.406C70.3203 146.188 70.1641 146.852 69.8516 147.398C68.9141 149.195 67.7422 151.383 66.3359 153.961C64.9297 156.539 63.3281 159.195 61.5312 161.93C59.7344 164.664 57.7422 167.398 55.5547 170.133C53.4453 172.789 51.1797 175.211 48.7578 177.398C46.3359 179.508 43.7969 181.227 41.1406 182.555C38.4844 183.883 35.7891 184.547 33.0547 184.547C29.5391 184.547 26.4531 183.805 23.7969 182.32C21.1406 180.836 18.875 178.844 17 176.344C15.2031 173.844 13.8359 170.914 12.8984 167.555C12.0391 164.117 11.6094 160.445 11.6094 156.539ZM34.8125 105.328C35.2812 106.031 35.5156 106.773 35.5156 107.555C35.5156 108.57 35.125 109.469 34.3438 110.25C33.6406 111.031 32.7422 111.422 31.6484 111.422C30.3203 111.422 29.2656 110.914 28.4844 109.898L18.875 96.3047L9.03125 109.898C8.25 110.914 7.23438 111.422 5.98438 111.422C4.89062 111.422 3.95312 111.031 3.17188 110.25C2.39062 109.469 2 108.57 2 107.555C2 106.617 2.27344 105.836 2.82031 105.211L15.9453 87.3984C16.7266 86.3828 17.7812 85.875 19.1094 85.875C20.4375 85.875 21.4531 86.4219 22.1562 87.5156L34.8125 105.328Z" fill="black"/>
<path d="M128.562 147.398C127.703 149.195 126.609 151.344 125.281 153.844C124.031 156.266 122.586 158.805 120.945 161.461C119.305 164.117 117.469 166.773 115.438 169.43C113.406 172.008 111.18 174.352 108.758 176.461C106.414 178.492 103.875 180.133 101.141 181.383C98.4844 182.711 95.6328 183.375 92.5859 183.375C87.8984 183.375 83.875 181.93 80.5156 179.039C77.1562 176.148 74.3047 172.359 71.9609 167.672C69.6172 162.984 67.7031 157.672 66.2188 151.734C64.8125 145.719 63.7188 139.625 62.9375 133.453C62.1562 127.203 61.6094 121.148 61.2969 115.289C61.0625 109.43 60.9453 104.234 60.9453 99.7031C60.9453 93.1406 61.1406 86.3438 61.5312 79.3125C62 72.2812 62.7031 65.4062 63.6406 58.6875C64.5781 51.9688 65.75 45.6016 67.1562 39.5859C68.6406 33.5703 70.3594 28.2969 72.3125 23.7656C74.3438 19.2344 76.6484 15.6406 79.2266 12.9844C81.8047 10.3281 84.7344 9 88.0156 9C90.5938 9 92.8984 9.625 94.9297 10.875C97.0391 12.0469 98.7969 14 100.203 16.7344C101.609 19.4688 102.703 23.0234 103.484 27.3984C104.266 31.7734 104.656 37.125 104.656 43.4531C104.656 51.2656 103.836 59.3516 102.195 67.7109C100.555 75.9922 98.3281 84.3516 95.5156 92.7891C92.7031 101.227 89.3828 109.664 85.5547 118.102C81.7266 126.461 77.625 134.625 73.25 142.594C75.2031 152.516 77.8203 160.328 81.1016 166.031C84.3828 171.656 88.3281 174.469 92.9375 174.469C96.0625 174.469 99.0703 173.258 101.961 170.836C104.852 168.336 107.508 165.406 109.93 162.047C112.352 158.688 114.461 155.289 116.258 151.852C118.133 148.336 119.578 145.523 120.594 143.414C120.984 142.633 121.531 142.047 122.234 141.656C122.938 141.188 123.719 140.953 124.578 140.953C125.906 140.953 126.961 141.422 127.742 142.359C128.602 143.297 129.031 144.352 129.031 145.523C129.031 145.992 128.875 146.617 128.562 147.398ZM69.8516 100.289C69.8516 105.289 69.9688 110.094 70.2031 114.703C70.4375 119.312 70.75 123.727 71.1406 127.945C74.4219 121.617 77.5469 114.898 80.5156 107.789C83.4844 100.602 86.1016 93.375 88.3672 86.1094C90.6328 78.7656 92.4297 71.5 93.7578 64.3125C95.1641 57.0469 95.8672 50.1328 95.8672 43.5703C95.8672 34.3516 95.125 27.75 93.6406 23.7656C92.1562 19.7812 90.1641 17.7891 87.6641 17.7891C86.0234 17.7891 84.4219 18.9219 82.8594 21.1875C81.375 23.4531 79.9688 26.5391 78.6406 30.4453C77.3125 34.3516 76.1016 38.9609 75.0078 44.2734C73.9141 49.5859 72.9766 55.2891 72.1953 61.3828C71.4922 67.4766 70.9062 73.8438 70.4375 80.4844C70.0469 87.125 69.8516 93.7266 69.8516 100.289Z" fill="black"/>
<path d="M134.773 166.969C136.414 169.234 138.523 171.07 141.102 172.477C143.68 173.805 146.844 174.469 150.594 174.469C154.422 174.469 157.898 173.57 161.023 171.773C164.148 169.898 167 167.477 169.578 164.508C172.156 161.539 174.461 158.219 176.492 154.547C178.523 150.875 180.359 147.203 182 143.531C182.391 142.672 182.938 142.047 183.641 141.656C184.344 141.188 185.125 140.953 185.984 140.953C187.312 140.953 188.367 141.422 189.148 142.359C190.008 143.297 190.438 144.312 190.438 145.406C190.438 145.797 190.398 146.148 190.32 146.461C190.242 146.695 190.125 146.969 189.969 147.281C184.578 159.156 178.68 168.102 172.273 174.117C165.945 180.133 158.758 183.219 150.711 183.375C145.555 183.375 141.102 182.359 137.352 180.328C133.602 178.375 130.516 175.836 128.094 172.711C125.672 169.508 123.875 165.914 122.703 161.93C121.531 157.945 120.945 153.961 120.945 149.977C120.945 145.992 121.414 142.32 122.352 138.961C123.367 135.602 124.773 132.672 126.57 130.172C128.445 127.672 130.633 125.719 133.133 124.312C135.711 122.906 138.523 122.203 141.57 122.203C143.367 122.203 145.125 122.594 146.844 123.375C148.641 124.078 150.242 125.133 151.648 126.539C153.055 127.867 154.188 129.508 155.047 131.461C155.906 133.414 156.336 135.641 156.336 138.141C156.336 141.344 155.789 144.352 154.695 147.164C153.602 149.977 152.078 152.594 150.125 155.016C148.25 157.438 145.984 159.664 143.328 161.695C140.672 163.727 137.82 165.484 134.773 166.969ZM131.258 159.352C133.68 158.336 135.867 157.047 137.82 155.484C139.852 153.922 141.57 152.203 142.977 150.328C144.383 148.453 145.477 146.5 146.258 144.469C147.039 142.359 147.43 140.25 147.43 138.141C147.43 135.797 146.844 134.039 145.672 132.867C144.5 131.617 143.133 130.992 141.57 130.992C139.461 130.992 137.664 131.578 136.18 132.75C134.695 133.922 133.484 135.445 132.547 137.32C131.609 139.195 130.906 141.305 130.438 143.648C130.047 145.914 129.852 148.18 129.852 150.445C129.852 151.852 129.969 153.336 130.203 154.898C130.516 156.461 130.867 157.945 131.258 159.352Z" fill="black"/>
<path d="M195.125 136.5C194.656 137.75 194.07 139.156 193.367 140.719C192.742 142.281 192 143.922 191.141 145.641C190.438 146.969 189.695 148.023 188.914 148.805C188.211 149.508 187.273 149.859 186.102 149.859C184.773 149.859 183.719 149.469 182.938 148.688C182.156 147.828 181.766 146.852 181.766 145.758C181.766 145.367 181.805 145.055 181.883 144.82C181.961 144.508 182.156 144.039 182.469 143.414C184.5 139.508 185.984 136.109 186.922 133.219C187.938 130.25 188.758 127.164 189.383 123.961C188.836 122.164 188.445 120.641 188.211 119.391C187.977 118.141 187.859 116.852 187.859 115.523C187.859 112.945 188.406 110.875 189.5 109.312C190.594 107.672 192.117 106.852 194.07 106.852C195.867 106.852 197.273 107.633 198.289 109.195C199.383 110.758 199.93 112.672 199.93 114.938C199.93 116.188 199.812 117.438 199.578 118.688C199.344 119.938 199.031 121.5 198.641 123.375C200.438 127.828 202.234 131.773 204.031 135.211C205.828 138.648 207.43 141.812 208.836 144.703C210.242 147.516 211.375 150.172 212.234 152.672C213.172 155.172 213.641 157.672 213.641 160.172C213.641 163.453 212.977 166.578 211.648 169.547C210.32 172.516 208.133 175.016 205.086 177.047C205.477 177.125 205.867 177.164 206.258 177.164C206.648 177.164 207.039 177.164 207.43 177.164C211.883 177.164 215.984 176.148 219.734 174.117C223.484 172.086 226.844 169.469 229.812 166.266C232.859 162.984 235.555 159.391 237.898 155.484C240.242 151.5 242.273 147.555 243.992 143.648C244.773 141.852 245.867 140.953 247.273 140.953C248.602 140.953 249.617 141.422 250.32 142.359C251.102 143.297 251.492 144.312 251.492 145.406C251.492 146.031 251.375 146.617 251.141 147.164C250.281 149.273 249.148 151.695 247.742 154.43C246.414 157.086 244.773 159.859 242.82 162.75C240.945 165.562 238.758 168.336 236.258 171.07C233.758 173.805 230.945 176.266 227.82 178.453C224.773 180.562 221.414 182.242 217.742 183.492C214.07 184.82 210.047 185.484 205.672 185.484C200.438 185.484 195.555 184.547 191.023 182.672C186.57 180.875 182.938 177.867 180.125 173.648C179.656 172.945 179.422 172.203 179.422 171.422C179.422 170.25 179.852 169.234 180.711 168.375C181.648 167.438 182.703 166.969 183.875 166.969C185.125 166.969 186.18 167.398 187.039 168.258C187.117 168.414 187.391 168.688 187.859 169.078C188.328 169.391 188.875 169.781 189.5 170.25C190.203 170.641 190.984 170.992 191.844 171.305C192.781 171.617 193.719 171.773 194.656 171.773C196.531 171.773 198.094 171.383 199.344 170.602C200.672 169.82 201.727 168.883 202.508 167.789C203.289 166.617 203.836 165.406 204.148 164.156C204.539 162.828 204.734 161.695 204.734 160.758C204.734 158.805 204.422 156.852 203.797 154.898C203.172 152.945 202.352 150.992 201.336 149.039C200.398 147.086 199.344 145.094 198.172 143.062C197.078 140.953 196.062 138.766 195.125 136.5Z" fill="black"/>
<path d="M11.6094 156.539C11.6094 145.289 12.3125 134.078 13.7188 122.906C13.875 121.812 14.3438 120.875 15.125 120.094C15.9844 119.234 17.0781 118.805 18.4062 118.805C19.5781 118.805 20.5547 119.273 21.3359 120.211C22.1172 121.07 22.5078 122.086 22.5078 123.258C22.5078 123.727 22.3906 125.133 22.1562 127.477C22 129.82 21.7656 132.633 21.4531 135.914C21.2188 139.117 20.9844 142.555 20.75 146.227C20.5938 149.82 20.5156 153.141 20.5156 156.188C20.5156 160.328 20.9062 163.688 21.6875 166.266C22.5469 168.766 23.6016 170.719 24.8516 172.125C26.1797 173.531 27.5469 174.469 28.9531 174.938C30.4375 175.406 31.8438 175.641 33.1719 175.641C35.3594 175.641 37.625 174.859 39.9688 173.297C42.3125 171.734 44.6953 169.547 47.1172 166.734C49.6172 163.922 52.1172 160.562 54.6172 156.656C57.1172 152.672 59.5781 148.258 62 143.414C62.3906 142.633 62.9375 142.047 63.6406 141.656C64.3438 141.188 65.125 140.953 65.9844 140.953C67.2344 140.953 68.25 141.422 69.0312 142.359C69.8906 143.297 70.3203 144.312 70.3203 145.406C70.3203 146.188 70.1641 146.852 69.8516 147.398C68.9141 149.195 67.7422 151.383 66.3359 153.961C64.9297 156.539 63.3281 159.195 61.5312 161.93C59.7344 164.664 57.7422 167.398 55.5547 170.133C53.4453 172.789 51.1797 175.211 48.7578 177.398C46.3359 179.508 43.7969 181.227 41.1406 182.555C38.4844 183.883 35.7891 184.547 33.0547 184.547C29.5391 184.547 26.4531 183.805 23.7969 182.32C21.1406 180.836 18.875 178.844 17 176.344C15.2031 173.844 13.8359 170.914 12.8984 167.555C12.0391 164.117 11.6094 160.445 11.6094 156.539ZM34.8125 105.328C35.2812 106.031 35.5156 106.773 35.5156 107.555C35.5156 108.57 35.125 109.469 34.3438 110.25C33.6406 111.031 32.7422 111.422 31.6484 111.422C30.3203 111.422 29.2656 110.914 28.4844 109.898L18.875 96.3047L9.03125 109.898C8.25 110.914 7.23438 111.422 5.98438 111.422C4.89062 111.422 3.95312 111.031 3.17188 110.25C2.39062 109.469 2 108.57 2 107.555C2 106.617 2.27344 105.836 2.82031 105.211L15.9453 87.3984C16.7266 86.3828 17.7812 85.875 19.1094 85.875C20.4375 85.875 21.4531 86.4219 22.1562 87.5156L34.8125 105.328Z" stroke="black" stroke-width="4"/>
<path d="M128.562 147.398C127.703 149.195 126.609 151.344 125.281 153.844C124.031 156.266 122.586 158.805 120.945 161.461C119.305 164.117 117.469 166.773 115.438 169.43C113.406 172.008 111.18 174.352 108.758 176.461C106.414 178.492 103.875 180.133 101.141 181.383C98.4844 182.711 95.6328 183.375 92.5859 183.375C87.8984 183.375 83.875 181.93 80.5156 179.039C77.1562 176.148 74.3047 172.359 71.9609 167.672C69.6172 162.984 67.7031 157.672 66.2188 151.734C64.8125 145.719 63.7188 139.625 62.9375 133.453C62.1562 127.203 61.6094 121.148 61.2969 115.289C61.0625 109.43 60.9453 104.234 60.9453 99.7031C60.9453 93.1406 61.1406 86.3438 61.5312 79.3125C62 72.2812 62.7031 65.4062 63.6406 58.6875C64.5781 51.9688 65.75 45.6016 67.1562 39.5859C68.6406 33.5703 70.3594 28.2969 72.3125 23.7656C74.3438 19.2344 76.6484 15.6406 79.2266 12.9844C81.8047 10.3281 84.7344 9 88.0156 9C90.5938 9 92.8984 9.625 94.9297 10.875C97.0391 12.0469 98.7969 14 100.203 16.7344C101.609 19.4688 102.703 23.0234 103.484 27.3984C104.266 31.7734 104.656 37.125 104.656 43.4531C104.656 51.2656 103.836 59.3516 102.195 67.7109C100.555 75.9922 98.3281 84.3516 95.5156 92.7891C92.7031 101.227 89.3828 109.664 85.5547 118.102C81.7266 126.461 77.625 134.625 73.25 142.594C75.2031 152.516 77.8203 160.328 81.1016 166.031C84.3828 171.656 88.3281 174.469 92.9375 174.469C96.0625 174.469 99.0703 173.258 101.961 170.836C104.852 168.336 107.508 165.406 109.93 162.047C112.352 158.688 114.461 155.289 116.258 151.852C118.133 148.336 119.578 145.523 120.594 143.414C120.984 142.633 121.531 142.047 122.234 141.656C122.938 141.188 123.719 140.953 124.578 140.953C125.906 140.953 126.961 141.422 127.742 142.359C128.602 143.297 129.031 144.352 129.031 145.523C129.031 145.992 128.875 146.617 128.562 147.398ZM69.8516 100.289C69.8516 105.289 69.9688 110.094 70.2031 114.703C70.4375 119.312 70.75 123.727 71.1406 127.945C74.4219 121.617 77.5469 114.898 80.5156 107.789C83.4844 100.602 86.1016 93.375 88.3672 86.1094C90.6328 78.7656 92.4297 71.5 93.7578 64.3125C95.1641 57.0469 95.8672 50.1328 95.8672 43.5703C95.8672 34.3516 95.125 27.75 93.6406 23.7656C92.1562 19.7812 90.1641 17.7891 87.6641 17.7891C86.0234 17.7891 84.4219 18.9219 82.8594 21.1875C81.375 23.4531 79.9688 26.5391 78.6406 30.4453C77.3125 34.3516 76.1016 38.9609 75.0078 44.2734C73.9141 49.5859 72.9766 55.2891 72.1953 61.3828C71.4922 67.4766 70.9062 73.8438 70.4375 80.4844C70.0469 87.125 69.8516 93.7266 69.8516 100.289Z" stroke="black" stroke-width="4"/>
<path d="M134.773 166.969C136.414 169.234 138.523 171.07 141.102 172.477C143.68 173.805 146.844 174.469 150.594 174.469C154.422 174.469 157.898 173.57 161.023 171.773C164.148 169.898 167 167.477 169.578 164.508C172.156 161.539 174.461 158.219 176.492 154.547C178.523 150.875 180.359 147.203 182 143.531C182.391 142.672 182.938 142.047 183.641 141.656C184.344 141.188 185.125 140.953 185.984 140.953C187.312 140.953 188.367 141.422 189.148 142.359C190.008 143.297 190.438 144.312 190.438 145.406C190.438 145.797 190.398 146.148 190.32 146.461C190.242 146.695 190.125 146.969 189.969 147.281C184.578 159.156 178.68 168.102 172.273 174.117C165.945 180.133 158.758 183.219 150.711 183.375C145.555 183.375 141.102 182.359 137.352 180.328C133.602 178.375 130.516 175.836 128.094 172.711C125.672 169.508 123.875 165.914 122.703 161.93C121.531 157.945 120.945 153.961 120.945 149.977C120.945 145.992 121.414 142.32 122.352 138.961C123.367 135.602 124.773 132.672 126.57 130.172C128.445 127.672 130.633 125.719 133.133 124.312C135.711 122.906 138.523 122.203 141.57 122.203C143.367 122.203 145.125 122.594 146.844 123.375C148.641 124.078 150.242 125.133 151.648 126.539C153.055 127.867 154.188 129.508 155.047 131.461C155.906 133.414 156.336 135.641 156.336 138.141C156.336 141.344 155.789 144.352 154.695 147.164C153.602 149.977 152.078 152.594 150.125 155.016C148.25 157.438 145.984 159.664 143.328 161.695C140.672 163.727 137.82 165.484 134.773 166.969ZM131.258 159.352C133.68 158.336 135.867 157.047 137.82 155.484C139.852 153.922 141.57 152.203 142.977 150.328C144.383 148.453 145.477 146.5 146.258 144.469C147.039 142.359 147.43 140.25 147.43 138.141C147.43 135.797 146.844 134.039 145.672 132.867C144.5 131.617 143.133 130.992 141.57 130.992C139.461 130.992 137.664 131.578 136.18 132.75C134.695 133.922 133.484 135.445 132.547 137.32C131.609 139.195 130.906 141.305 130.438 143.648C130.047 145.914 129.852 148.18 129.852 150.445C129.852 151.852 129.969 153.336 130.203 154.898C130.516 156.461 130.867 157.945 131.258 159.352Z" stroke="black" stroke-width="4"/>
<path d="M195.125 136.5C194.656 137.75 194.07 139.156 193.367 140.719C192.742 142.281 192 143.922 191.141 145.641C190.438 146.969 189.695 148.023 188.914 148.805C188.211 149.508 187.273 149.859 186.102 149.859C184.773 149.859 183.719 149.469 182.938 148.688C182.156 147.828 181.766 146.852 181.766 145.758C181.766 145.367 181.805 145.055 181.883 144.82C181.961 144.508 182.156 144.039 182.469 143.414C184.5 139.508 185.984 136.109 186.922 133.219C187.938 130.25 188.758 127.164 189.383 123.961C188.836 122.164 188.445 120.641 188.211 119.391C187.977 118.141 187.859 116.852 187.859 115.523C187.859 112.945 188.406 110.875 189.5 109.312C190.594 107.672 192.117 106.852 194.07 106.852C195.867 106.852 197.273 107.633 198.289 109.195C199.383 110.758 199.93 112.672 199.93 114.938C199.93 116.188 199.812 117.438 199.578 118.688C199.344 119.938 199.031 121.5 198.641 123.375C200.438 127.828 202.234 131.773 204.031 135.211C205.828 138.648 207.43 141.812 208.836 144.703C210.242 147.516 211.375 150.172 212.234 152.672C213.172 155.172 213.641 157.672 213.641 160.172C213.641 163.453 212.977 166.578 211.648 169.547C210.32 172.516 208.133 175.016 205.086 177.047C205.477 177.125 205.867 177.164 206.258 177.164C206.648 177.164 207.039 177.164 207.43 177.164C211.883 177.164 215.984 176.148 219.734 174.117C223.484 172.086 226.844 169.469 229.812 166.266C232.859 162.984 235.555 159.391 237.898 155.484C240.242 151.5 242.273 147.555 243.992 143.648C244.773 141.852 245.867 140.953 247.273 140.953C248.602 140.953 249.617 141.422 250.32 142.359C251.102 143.297 251.492 144.312 251.492 145.406C251.492 146.031 251.375 146.617 251.141 147.164C250.281 149.273 249.148 151.695 247.742 154.43C246.414 157.086 244.773 159.859 242.82 162.75C240.945 165.562 238.758 168.336 236.258 171.07C233.758 173.805 230.945 176.266 227.82 178.453C224.773 180.562 221.414 182.242 217.742 183.492C214.07 184.82 210.047 185.484 205.672 185.484C200.438 185.484 195.555 184.547 191.023 182.672C186.57 180.875 182.938 177.867 180.125 173.648C179.656 172.945 179.422 172.203 179.422 171.422C179.422 170.25 179.852 169.234 180.711 168.375C181.648 167.438 182.703 166.969 183.875 166.969C185.125 166.969 186.18 167.398 187.039 168.258C187.117 168.414 187.391 168.688 187.859 169.078C188.328 169.391 188.875 169.781 189.5 170.25C190.203 170.641 190.984 170.992 191.844 171.305C192.781 171.617 193.719 171.773 194.656 171.773C196.531 171.773 198.094 171.383 199.344 170.602C200.672 169.82 201.727 168.883 202.508 167.789C203.289 166.617 203.836 165.406 204.148 164.156C204.539 162.828 204.734 161.695 204.734 160.758C204.734 158.805 204.422 156.852 203.797 154.898C203.172 152.945 202.352 150.992 201.336 149.039C200.398 147.086 199.344 145.094 198.172 143.062C197.078 140.953 196.062 138.766 195.125 136.5Z" stroke="black" stroke-width="4"/>
<path d="M271.916 154.518C268.96 173.266 296.939 188.619 351.122 188.619C405.306 188.619 425.373 168.537 424.267 156.17C423.16 143.772 400.623 123.993 343.969 125.918C287.33 127.843 273.568 144.075 271.916 154.518V154.518Z" fill="#179CF5"/>
<path d="M291.437 146.864C291.967 147.925 297.438 148.653 300.06 151.184C304.683 155.64 305.198 158.944 311.079 160.732C316.944 162.506 321.673 159.505 328.6 160.52C335.738 161.566 338.769 165.976 346.211 166.386C354.744 166.871 354.79 160.914 364.399 160.202C374.008 159.489 375.326 162.748 383.086 160.55C390.725 158.383 391.453 153.973 395.545 150.941C399.637 147.91 402.502 147.183 402.502 147.183C402.502 147.183 390.907 121.614 356.229 119.977C318.657 118.219 291.437 146.864 291.437 146.864Z" fill="#F6C973"/>
<path d="M311.989 142.984C311.989 142.984 320.022 143.439 328.631 141.545C337.24 139.65 345.181 136.679 346.121 138.483C346.97 140.105 338.831 146.349 338.831 146.349C338.831 146.349 342.62 149.092 351.032 148.198C359.443 147.304 365.551 144.091 368.552 142.196C371.553 140.302 376.358 137.377 382.769 135.77C389.18 134.163 392.924 134.724 392.924 134.724C392.924 134.724 385.103 126.51 377.358 124.479C360.55 120.068 355.973 121.462 345.197 124.615C327.934 129.662 311.989 142.984 311.989 142.984V142.984Z" fill="#EDA052"/>
<path d="M359.489 56.3511L348.546 63.6715C348.546 63.6715 357.246 73.7808 359.762 87.7245C361.383 96.7122 362.656 104.715 361.595 112.338C361.156 115.445 358.155 121.72 357.291 123.827C356.427 125.933 355.184 130.905 359.034 131.905C362.884 132.905 375.433 133.269 377.282 133.027C379.146 132.784 381.344 131.42 380.344 126.919C379.722 124.115 378.661 115.385 378.04 109.428C377.419 103.472 377.04 91.9986 371.856 77.9184C366.809 64.1717 359.489 56.3511 359.489 56.3511V56.3511Z" fill="#DC8124"/>
<path d="M369.552 116.809C375.206 117.128 378.798 116.051 378.798 116.051L379.571 121.781C379.571 121.781 376.115 122.751 369.598 122.356C363.914 122.008 358.776 120.447 358.776 120.447L360.898 115.036C360.883 115.021 363.854 116.476 369.552 116.809Z" fill="#C0711F"/>
<path d="M361.747 101.274C361.747 101.274 361.853 102.866 361.914 103.881C361.959 104.897 361.99 106.458 361.99 106.458C361.99 106.458 366.264 106.958 369.643 106.821C375.176 106.594 377.661 105.275 377.661 105.275C377.661 105.275 377.555 104.048 377.403 102.593C377.252 101.138 377.085 99.9253 377.085 99.9253C377.085 99.9253 374.372 101.259 368.689 101.638C364.596 101.88 361.747 101.274 361.747 101.274Z" fill="#C0711F"/>
<path d="M359.564 86.7697C359.564 86.7697 362.156 87.3001 366.991 86.2543C371.689 85.2389 373.705 83.4504 373.705 83.4504C373.705 83.4504 374.144 84.8297 374.402 85.8754C374.644 86.8606 375.023 88.3004 375.023 88.3004C375.023 88.3004 373.129 90.1647 367.976 91.1801C362.929 92.1805 360.413 91.4984 360.413 91.4984C360.413 91.4984 360.17 90.1495 360.003 89.1492C359.822 87.9822 359.564 86.7697 359.564 86.7697Z" fill="#C0711F"/>
<path d="M356.912 77.8578C356.912 77.8578 359.306 78.0245 363.959 76.2664C368.021 74.7356 369.764 72.6895 369.764 72.6895L364.05 60.1401L350.349 65.1114L356.912 77.8578V77.8578Z" fill="#A2672B"/>
<path d="M357.685 62.2615L380.783 70.9764C380.783 70.9764 381.859 67.9148 382.389 65.3989C382.738 63.7317 383.056 60.8217 383.769 60.8672C384.951 60.9581 385.663 62.8829 385.709 65.6111C385.754 67.9603 385.133 72.0828 385.133 72.0828L390.043 73.5832C390.043 73.5832 391.15 71.2795 391.862 68.3543C392.605 65.2928 392.135 63.3983 392.908 63.3983C394.226 63.3983 395.196 65.8536 395.075 69.6123C394.984 72.5526 394.317 74.9776 394.469 75.0837C394.711 75.2807 397.379 75.7203 399.546 76.3265C401.714 76.9328 403.017 77.0995 403.017 77.0995C403.017 77.0995 406.533 60.3973 395.666 53.1829C383.147 44.8773 367.476 51.1823 367.476 51.1823L377.615 42.6948C377.615 42.6948 377.054 40.9215 375.418 38.3147C374.508 36.8597 372.977 35.2076 372.614 34.177C372.356 33.4495 374.554 33.207 377.479 34.9651C379.813 36.3747 383.056 39.2089 383.117 39.2543L385.754 37.3295C385.754 37.3295 385.572 35.1318 384.542 33.2525C383.678 31.6611 382.708 29.9939 383.087 29.7817C383.86 29.3422 386.118 29.9333 387.649 31.4186C388.967 32.7068 389.907 34.6468 389.907 34.6468L397.788 29.615C397.788 29.615 392.332 21.0517 380.48 21.4761C368.628 21.9156 363.49 28.3722 361.504 30.6304C359.519 32.8736 356.366 38.0267 356.366 38.0267L357.488 24.2345C357.488 24.2345 356.775 23.2948 354.82 22.6886C352.88 22.0823 351.137 22.4915 351.107 22.2339C350.971 21.2942 352.592 19.6725 355.26 19.3693C356.821 19.1875 358.276 19.43 358.276 19.43L359.549 6.13794C359.549 6.13794 345.075 6.42591 340.482 19.4754C336.542 30.6911 343.832 40.9822 342.498 41.9825C341.361 42.8312 331.965 32.525 317.975 35.829C302.622 39.4514 298.424 55.6534 299.303 55.6534C301.652 55.6534 308.806 55.9868 309.23 55.6534C309.442 55.4867 310.079 53.5012 311.473 51.3642C312.868 49.2272 316.46 46.105 317.869 46.6961C318.597 46.9992 317.596 48.2875 316.657 50.5912C315.717 52.9708 314.823 56.0778 314.823 56.0778L321.401 56.0172C321.401 56.0172 323.644 48.4239 326.326 47.8631C327.478 47.6206 326.433 49.7425 326.145 51.637C325.857 53.5922 326.023 56.199 326.023 56.199L336.299 56.8053C336.299 56.8053 323.401 57.3054 314.808 65.1412C305.911 73.2498 304.956 81.4948 305.638 88.6486C306.123 93.7411 307.154 97.2725 307.639 97.8181C308.018 98.2576 314.474 90.9523 314.732 90.3461C314.99 89.7398 314.292 86.1326 314.292 82.677C314.292 79.2214 315.065 77.4784 315.763 77.4026C316.46 77.3117 316.278 79.8276 316.808 81.995C317.354 84.2532 318.188 86.1478 318.536 86.3145C318.885 86.4812 322.734 81.4645 322.734 81.4645C322.734 81.4645 322.31 78.994 322.083 77.0237C321.855 75.0382 322.295 72.7193 322.856 72.3253C323.477 71.8857 323.765 74.3411 324.493 76.2811C325.084 77.827 325.569 78.6757 325.887 79.085L332.722 72.6284C332.722 72.6284 327.478 82.1617 328.282 91.9526C329.176 102.911 335.89 105.805 336.314 105.73C336.754 105.639 341.649 94.9687 341.649 94.9687C341.649 94.9687 340.119 93.0893 338.785 90.5886C337.103 87.4361 337.193 84.6018 337.815 84.2078C338.694 83.647 339.982 87.1481 341.271 88.7092C342.574 90.2703 343.438 90.9068 343.711 90.9068C343.983 90.9068 347.545 83.5409 347.545 83.5409C347.545 83.5409 346.484 82.3132 345.651 81.0401C344.953 79.964 344.332 78.0998 344.923 76.9934C345.56 76.4023 346.196 77.9331 347.181 78.7364C348.151 79.5397 349.061 80.3732 349.061 80.3732L357.685 62.2615V62.2615Z" fill="#728137"/>
<path d="M359.504 67.8696C360.004 67.5361 360.989 60.8522 361.474 57.5178C361.898 54.5017 362.959 50.0155 360.671 49.5608C359.095 49.2577 358.443 51.4857 357.943 53.8652C357.488 55.9871 356.821 58.8819 356.821 58.8819C356.821 58.8819 354.79 54.9867 353.426 52.6072C352.441 50.8946 350.304 47.2722 348.606 48.3483C346.651 49.5911 348.773 53.5924 349.97 55.79C351.168 57.9877 352.517 60.5642 352.517 60.5642C352.517 60.5642 348.925 59.3366 346.833 58.6849C344.545 57.9725 341.468 57.3511 341.043 58.5788C340.301 60.731 343.135 61.8071 348.622 64.0502C354.078 66.2933 358.67 68.4152 359.504 67.8696V67.8696Z" fill="#BDCF47"/>
<path d="M343.741 116.143C339.967 116.613 337.117 119.78 337.966 124.691C338.815 129.602 343.862 130.344 346.681 129.874C350.076 129.298 353.713 125.494 351.334 120.068C349.742 116.416 346.059 115.855 343.741 116.143V116.143Z" fill="#A2672B"/>
<path d="M277.599 151.745C276.447 150.835 273.704 155.306 277.705 160.384C279.039 162.081 280.1 164.612 282.601 166.386C284.935 168.038 286.632 168.113 289.952 170.569C291.588 171.781 294.923 173.1 295.802 172.963C297.757 172.675 298.106 172.463 297.969 171.933C297.757 171.16 295.165 170.235 293.165 168.462C291.028 166.567 290.133 163.324 287.799 161.551C284.965 159.383 283.631 160.293 280.115 156.579C278.478 154.867 277.751 151.866 277.599 151.745V151.745Z" fill="#0FCAFF"/>
<path d="M400.456 172.478C400.956 173.403 408.11 168.447 411.247 166.78C414.384 165.128 419.219 164.643 420.538 158.929C421.387 155.215 418.598 151.563 417.779 151.654C416.946 151.745 416.537 155.215 414.733 157.55C412.247 160.778 409.019 161.323 406.079 164.082C403.73 166.295 399.804 171.281 400.456 172.478V172.478Z" fill="#0FCAFF"/>
<path d="M288.178 141.529C289.072 142.651 285.784 145.121 286.329 147.152C287.617 150.926 289.648 149.911 294.711 153.882C299.591 157.686 298.954 159.686 302.728 162.718C305.775 165.173 309.912 167.143 316.081 166.673C322.249 166.204 323.947 165.84 328.373 166.385C335.845 167.325 335.526 170.265 343.347 172.099C346.878 172.933 350.349 171.827 353.759 169.796C356.836 167.962 360.943 165.749 366.93 165.658C372.917 165.567 380.556 167.522 387.164 164.915C392.559 162.778 393.832 159.398 397.788 155.715C401.744 152.032 406.791 151.684 407.731 148.531C408.837 144.848 404.139 142.818 403.396 141.999C402.653 141.165 402.744 139.695 404.411 139.786C406.079 139.877 414.263 143.196 413.717 149.365C413.293 154.079 409.292 155.715 407.079 156.822C405.685 157.519 402.381 159.126 398.879 163.551C395.378 167.977 393.666 170.599 388.937 172.115C383.602 173.812 377.509 173.676 370.522 173.312C364.823 173.009 359.973 174.388 356.063 176.358C352.016 178.389 347.197 179.541 342.983 178.844C336.254 177.737 333.859 174.327 327.509 173.221C321.431 171.751 316.551 175.434 306.699 172.205C299.091 169.72 296.939 165.112 294.908 162.809C292.877 160.505 291.406 158.292 286.617 156.17C281.828 154.048 280.903 150.926 280.994 148.895C281.161 145.394 283.753 143.454 284.768 142.545C285.784 141.635 287.814 141.075 288.178 141.529V141.529Z" fill="#76F8FF"/>
</svg>
