<svg xmlns="http://www.w3.org/2000/svg" aria-hidden="true" width="32" height="32" viewBox="0 0 128 128"><path d="M13.8 101.95c-1.95 12.37 16.51 22.5 52.26 22.5s48.99-13.25 48.26-21.41c-.73-8.18-15.6-21.23-52.98-19.96-37.37 1.27-46.45 11.98-47.54 18.87z" fill="#179cf5"/><path d="M26.68 96.9c.35.7 3.96 1.18 5.69 2.85 3.05 2.94 3.39 5.12 7.27 6.3 3.87 1.17 6.99-.81 11.56-.14 4.71.69 6.71 3.6 11.62 3.87 5.63.32 5.66-3.61 12-4.08 6.34-.47 7.21 1.68 12.33.23 5.04-1.43 5.52-4.34 8.22-6.34s4.59-2.48 4.59-2.48-7.65-16.87-30.53-17.95C44.64 78 26.68 96.9 26.68 96.9z" fill="#f6c973"/><path d="M40.24 94.34s5.3.3 10.98-.95 10.92-3.21 11.54-2.02c.56 1.07-4.81 5.19-4.81 5.19s2.5 1.81 8.05 1.22 9.58-2.71 11.56-3.96 5.15-3.18 9.38-4.24 6.7-.69 6.7-.69-5.16-5.42-10.27-6.76c-11.09-2.91-14.11-1.99-21.22.09-11.39 3.33-21.91 12.12-21.91 12.12z" fill="#eda052"/><path d="m71.58 37.18-7.22 4.83s5.74 6.67 7.4 15.87c1.07 5.93 1.91 11.21 1.21 16.24-.29 2.05-2.27 6.19-2.84 7.58-.57 1.39-1.39 4.67 1.15 5.33s10.82.9 12.04.74c1.23-.16 2.68-1.06 2.02-4.03-.41-1.85-1.11-7.61-1.52-11.54-.41-3.93-.66-11.5-4.08-20.79-3.33-9.07-8.16-14.23-8.16-14.23z" fill="#dc8124"/><path d="M78.22 77.07c3.73.21 6.1-.5 6.1-.5l.51 3.78s-2.28.64-6.58.38c-3.75-.23-7.14-1.26-7.14-1.26l1.4-3.57c-.01-.01 1.95.95 5.71 1.17zM73.07 66.82s.07 1.05.11 1.72c.03.67.05 1.7.05 1.7s2.82.33 5.05.24c3.65-.15 5.29-1.02 5.29-1.02s-.07-.81-.17-1.77-.21-1.76-.21-1.76-1.79.88-5.54 1.13c-2.7.16-4.58-.24-4.58-.24zM71.63 57.25s1.71.35 4.9-.34c3.1-.67 4.43-1.85 4.43-1.85s.29.91.46 1.6c.16.65.41 1.6.41 1.6s-1.25 1.23-4.65 1.9c-3.33.66-4.99.21-4.99.21s-.16-.89-.27-1.55c-.12-.77-.29-1.57-.29-1.57z" fill="#c0711f"/><path d="M69.88 51.37s1.58.11 4.65-1.05c2.68-1.01 3.83-2.36 3.83-2.36l-3.77-8.28-9.04 3.28 4.33 8.41z" fill="#a2672b"/><path d="m70.39 41.08 15.24 5.75s.71-2.02 1.06-3.68c.23-1.1.44-3.02.91-2.99.78.06 1.25 1.33 1.28 3.13.03 1.55-.38 4.27-.38 4.27l3.24.99s.73-1.52 1.2-3.45c.49-2.02.18-3.27.69-3.27.87 0 1.51 1.62 1.43 4.1-.06 1.94-.5 3.54-.4 3.61.16.13 1.92.42 3.35.82 1.43.4 2.29.51 2.29.51s2.32-11.02-4.85-15.78c-8.26-5.48-18.6-1.32-18.6-1.32l6.69-5.6s-.37-1.17-1.45-2.89c-.6-.96-1.61-2.05-1.85-2.73-.17-.48 1.28-.64 3.21.52 1.54.93 3.68 2.8 3.72 2.83l1.74-1.27s-.12-1.45-.8-2.69c-.57-1.05-1.21-2.15-.96-2.29.51-.29 2 .1 3.01 1.08.87.85 1.49 2.13 1.49 2.13l5.2-3.32s-3.6-5.65-11.42-5.37c-7.82.29-11.21 4.55-12.52 6.04-1.31 1.48-3.39 4.88-3.39 4.88l.74-9.1s-.47-.62-1.76-1.02c-1.28-.4-2.43-.13-2.45-.3-.09-.62.98-1.69 2.74-1.89 1.03-.12 1.99.04 1.99.04l.84-8.77s-9.55.19-12.58 8.8c-2.6 7.4 2.21 14.19 1.33 14.85-.75.56-6.95-6.24-16.18-4.06-10.13 2.39-12.9 13.08-12.32 13.08 1.55 0 6.27.22 6.55 0 .14-.11.56-1.42 1.48-2.83.92-1.41 3.29-3.47 4.22-3.08.48.2-.18 1.05-.8 2.57-.62 1.57-1.21 3.62-1.21 3.62l4.34-.04s1.48-5.01 3.25-5.38c.76-.16.07 1.24-.12 2.49-.19 1.29-.08 3.01-.08 3.01l6.78.4s-8.51.33-14.18 5.5c-5.87 5.35-6.5 10.79-6.05 15.51.32 3.36 1 5.69 1.32 6.05.25.29 4.51-4.53 4.68-4.93.17-.4-.29-2.78-.29-5.06s.51-3.43.97-3.48c.46-.06.34 1.6.69 3.03.36 1.49.91 2.74 1.14 2.85.23.11 2.77-3.2 2.77-3.2s-.28-1.63-.43-2.93c-.15-1.31.14-2.84.51-3.1.41-.29.6 1.33 1.08 2.61.39 1.02.71 1.58.92 1.85l4.51-4.26s-3.46 6.29-2.93 12.75c.59 7.23 5.02 9.14 5.3 9.09.29-.06 3.52-7.1 3.52-7.1s-1.01-1.24-1.89-2.89c-1.11-2.08-1.05-3.95-.64-4.21.58-.37 1.43 1.94 2.28 2.97.86 1.03 1.43 1.45 1.61 1.45s2.53-4.86 2.53-4.86-.7-.81-1.25-1.65c-.46-.71-.87-1.94-.48-2.67.42-.39.84.62 1.49 1.15.64.53 1.24 1.08 1.24 1.08l5.69-11.95z" fill="#728137"/><path d="M71.59 44.78c.33-.22.98-4.63 1.3-6.83.28-1.99.98-4.95-.53-5.25-1.04-.2-1.47 1.27-1.8 2.84-.3 1.4-.74 3.31-.74 3.31s-1.34-2.57-2.24-4.14c-.65-1.13-2.06-3.52-3.18-2.81-1.29.82.11 3.46.9 4.91.79 1.45 1.68 3.15 1.68 3.15s-2.37-.81-3.75-1.24c-1.51-.47-3.54-.88-3.82-.07-.49 1.42 1.38 2.13 5 3.61 3.6 1.48 6.63 2.88 7.18 2.52z" fill="#bdcf47"/><path d="M61.19 76.63c-2.49.31-4.37 2.4-3.81 5.64s3.89 3.73 5.75 3.42c2.24-.38 4.64-2.89 3.07-6.47-1.05-2.41-3.48-2.78-5.01-2.59z" fill="#a2672b"/><path d="M17.55 100.12c-.76-.6-2.57 2.35.07 5.7.88 1.12 1.58 2.79 3.23 3.96 1.54 1.09 2.66 1.14 4.85 2.76 1.08.8 3.28 1.67 3.86 1.58 1.29-.19 1.52-.33 1.43-.68-.14-.51-1.85-1.12-3.17-2.29-1.41-1.25-2-3.39-3.54-4.56-1.87-1.43-2.75-.83-5.07-3.28-1.08-1.13-1.56-3.11-1.66-3.19zM98.61 113.8c.33.61 5.05-2.66 7.12-3.76 2.07-1.09 5.26-1.41 6.13-5.18.56-2.45-1.28-4.86-1.82-4.8-.55.06-.82 2.35-2.01 3.89-1.64 2.13-3.77 2.49-5.71 4.31-1.55 1.46-4.14 4.75-3.71 5.54z" fill="#0fcaff"/><path d="M24.53 93.38c.59.74-1.58 2.37-1.22 3.71.85 2.49 2.19 1.82 5.53 4.44 3.22 2.51 2.8 3.83 5.29 5.83 2.01 1.62 4.74 2.92 8.81 2.61s5.19-.55 8.11-.19c4.93.62 4.72 2.56 9.88 3.77 2.33.55 4.62-.18 6.87-1.52 2.03-1.21 4.74-2.67 8.69-2.73 3.95-.06 8.99 1.23 13.35-.49 3.56-1.41 4.4-3.64 7.01-6.07 2.61-2.43 5.94-2.66 6.56-4.74.73-2.43-2.37-3.77-2.86-4.31-.49-.55-.43-1.52.67-1.46s6.5 2.25 6.14 6.32c-.28 3.11-2.92 4.19-4.38 4.92-.92.46-3.1 1.52-5.41 4.44-2.31 2.92-3.44 4.65-6.56 5.65-3.52 1.12-7.54 1.03-12.15.79-3.76-.2-6.96.71-9.54 2.01-2.67 1.34-5.85 2.1-8.63 1.64-4.44-.73-6.02-2.98-10.21-3.71-4.01-.97-7.23 1.46-13.73-.67-5.02-1.64-6.44-4.68-7.78-6.2s-2.31-2.98-5.47-4.38c-3.16-1.4-3.77-3.46-3.71-4.8.11-2.31 1.82-3.59 2.49-4.19.67-.6 2.01-.97 2.25-.67z" fill="#76f8ff"/></svg>
