<svg xmlns="http://www.w3.org/2000/svg" xmlns:xlink="http://www.w3.org/1999/xlink" aria-hidden="true" role="img" class="iconify iconify--twemoji" width="32" height="32" preserveAspectRatio="xMidYMid meet" viewBox="0 0 36 36"><ellipse fill="#3B88C3" cx="18" cy="30.54" rx="18" ry="5.36"></ellipse><path fill="#88C9F9" d="M33.812 28.538c0 1.616-2.5 2.587-14.482 2.587c-10.925 0-13.612-.971-13.612-2.587s5.683-2.926 13.612-2.926s14.482 1.31 14.482 2.926z"></path><path fill="#F4900C" d="M7 28.25c0-1 1-5 11-5c12 0 15 4 15 5s0 2-14 2c-12 0-12-1-12-2z"></path><circle fill="#FFCC4D" cx="7" cy="6.25" r="5"></circle><circle fill="#FFAC33" cx="7" cy="6.25" r="4"></circle><path fill="#C1694F" d="M26.949 14.467a20.958 20.958 0 0 0-.524-3.459a21.947 21.947 0 0 0-1.001-3.158c-.377-.929-.674-1.46-.674-1.46l-2.583.333s.298.622.621 1.841c.131.495.265 1.09.386 1.784a26.337 26.337 0 0 1 .343 2.948c.024.37.041.756.053 1.158c.004.146.011.287.013.437c.007.469-.026.946-.084 1.422c-.053.429-.13.856-.223 1.279a19.27 19.27 0 0 1-.479 1.77c-.149.46-.308.901-.468 1.316a34.772 34.772 0 0 1-.707 1.687c-.358.798-.622 1.33-.622 1.441c0 .351.25 1.007 2 1.444c2.736.684 3-.444 3-.444s.174-.528.376-1.567c.1-.513.206-1.147.303-1.915c.058-.459.112-.964.158-1.513a44.241 44.241 0 0 0 .157-3.478c.002-.176.006-.346.006-.527c0-.459-.021-.903-.051-1.339z"></path><path fill="#D99E82" d="M24.324 21.362c-1.003-.175-1.643-.467-1.994-.686a34.772 34.772 0 0 1-.707 1.687c.655.356 1.487.64 2.389.796a8.925 8.925 0 0 0 1.523.136c.296 0 .574-.023.841-.057c.1-.513.206-1.147.303-1.915c-.318.113-1.107.257-2.355.039zm.758-3.342c-.782-.077-1.383-.249-1.805-.43a19.27 19.27 0 0 1-.479 1.77a8.395 8.395 0 0 0 2.106.476c.307.03.611.045.908.045c.359 0 .7-.028 1.026-.071c.049-.572.089-1.192.118-1.863c-.45.098-1.08.152-1.874.073zm.221-1.524c.588 0 1.165-.059 1.692-.163c.001-.176.005-.346.005-.527c0-.458-.021-.902-.051-1.339c-.378.099-.919.194-1.682.205c-.775-.003-1.32-.111-1.698-.219c.004.146.011.287.013.437c.007.469-.026.946-.084 1.422a8.836 8.836 0 0 0 1.76.184h.045zm-.178-3.273a8.657 8.657 0 0 0 1.648-.418a21.742 21.742 0 0 0-.347-1.797a6.44 6.44 0 0 1-1.56.409a6.508 6.508 0 0 1-1.522.055c.072.558.131 1.167.173 1.823c.109.004.207.021.319.021c.42 0 .857-.031 1.289-.093zm.909-3.658a21.475 21.475 0 0 0-.61-1.715a6.74 6.74 0 0 1-1.242.471a6.634 6.634 0 0 1-1.395.243c.131.495.265 1.09.386 1.784a8.894 8.894 0 0 0 1.497-.269a8.892 8.892 0 0 0 1.364-.514z"></path><path fill="#3E721D" d="M34.549 2.943c-.032-.042-3.202-4.283-7.313-2.423c-1.847.835-3.038 2.2-3.469 3.963c-.804-1.125-2.026-1.839-3.644-2.127c-4.421-.788-7.092 4.123-7.118 4.172a.174.174 0 0 0 .256.224c.02-.015 2.037-1.427 5.396-.828a96.783 96.783 0 0 1 5.864 1.217a.178.178 0 0 0 .172-.051c.022-.024 2.303-2.475 4.4-3.423c3.104-1.404 5.221-.472 5.24-.462a.176.176 0 0 0 .216-.262z"></path><path fill="#5C913B" d="M31.129 5.401c-3.134-1.655-5.57-.831-7.083.174c-1.813-.351-5.201-.357-8.072 3.324c-3.525 4.518-.433 10.152-.402 10.209c.031.056.09.089.153.089l.021-.001a.175.175 0 0 0 .147-.128c.011-.039 1.097-3.967 3.843-7.27c1.501-1.805 3.293-3.474 4.554-4.573c1.27.211 3.136.678 4.969 1.702c3.573 1.998 5.212 5.379 5.228 5.413c.032.066.101.112.177.099a.173.173 0 0 0 .151-.134c.014-.063 1.392-6.222-3.686-8.904z"></path></svg>
